<?xml version="1.0" encoding="UTF-8"?>
<svg xmlns="http://www.w3.org/2000/svg" version="1.1" viewBox="0 0 500 500">
  <defs>
    <style>
      .cls-1 {
        fill: #231f20;
      }

      .cls-2 {
        stroke-linecap: round;
      }

      .cls-2, .cls-3 {
        fill: none;
        stroke: #231f20;
        stroke-miterlimit: 10;
        stroke-width: 25px;
      }
    </style>
  </defs>
  <!-- Generator: Adobe Illustrator 28.6.0, SVG Export Plug-In . SVG Version: 1.2.0 Build 709)  -->
  <g>
    <g id="Layer_1">
      <path class="cls-3" d="M143.93,356.07c-58.58-58.58-58.58-153.55,0-212.13s153.55-58.58,212.13,0"/>
      <path class="cls-2" d="M385.99,186.59c25.88,55.53,15.91,123.65-29.92,169.48s-113.95,55.8-169.48,29.92"/>
      <line class="cls-2" x1="143.93" y1="356.07" x2="108.58" y2="391.42"/>
      <line class="cls-2" x1="186.59" y1="385.99" x2="205.72" y2="432.18"/>
      <line class="cls-2" x1="186.59" y1="385.99" x2="232.78" y2="366.86"/>
      <path class="cls-1" d="M135.41,117.74c-3.13,2.71-6.18,5.55-9.15,8.52-2.97,2.97-5.81,6.02-8.52,9.15l-26.84-26.83c-4.88-4.88-4.88-12.8,0-17.68s12.8-4.88,17.68,0l26.83,26.84Z"/>
      <path class="cls-1" d="M75.52,262.5h-38.02c-6.9,0-12.5-5.6-12.5-12.5s5.6-12.5,12.5-12.5h38.02c-.59,8.32-.59,16.68,0,25Z"/>
      <path class="cls-1" d="M262.5,40.17v35.35c-8.32-.59-16.68-.59-25,0v-35.35c0-6.9,5.6-12.5,12.5-12.5s12.5,5.6,12.5,12.5Z"/>
      <line class="cls-2" x1="356.07" y1="143.93" x2="391.42" y2="108.58"/>
    </g>
  </g>
</svg>