<?xml version="1.0" encoding="UTF-8"?>
<svg xmlns="http://www.w3.org/2000/svg" version="1.1" viewBox="0 0 500 500">
  <defs>
    <style>
      .cls-1 {
        fill: #c61d23;
      }

      .cls-2 {
        fill: #f26522;
      }

      .cls-3 {
        fill: #2f3343;
      }

      .cls-4 {
        fill: #e6e7e8;
      }

      .cls-5 {
        display: none;
      }
    </style>
  </defs>
  <!-- Generator: Adobe Illustrator 28.6.0, SVG Export Plug-In . SVG Version: 1.2.0 Build 709)  -->
  <g>
    <g id="Layer_2" class="cls-5">
      <rect class="cls-3" width="500" height="500"/>
    </g>
    <g id="Layer_1" class="cls-5">
      <g>
        <path class="cls-1" d="M449.18,123.87c0-3.58-.24-7.09-.71-10.53-4.85-35.71-33.96-63.15-69.17-63.15H119.77c-35.2,0-64.32,27.45-69.16,63.15-.48,3.43-.71,6.95-.71,10.53v73.69h398.58c-1.57-11.62-5.72-22.37-11.82-31.58,6.1-9.21,10.25-19.95,11.82-31.58.47-3.43.71-6.95.71-10.53ZM379.31,134.4H119.77c-5.52,0-9.98-4.71-9.98-10.53s4.47-10.53,9.98-10.53h259.53c5.52,0,9.99,4.71,9.99,10.53s-4.47,10.53-9.99,10.53Z"/>
        <path class="cls-2" d="M449.9,376.51c0,3.57-.24,7.09-.71,10.53-4.84,35.71-33.96,63.16-69.16,63.16H120.48c-35.2,0-64.32-27.45-69.16-63.16h328.7c5.51,0,9.98-4.72,9.98-10.53s-4.47-10.53-9.98-10.53H120.48c-23.74,0-44.72-12.49-57.34-31.58-.8-1.21-1.58-2.45-2.31-3.72-6.48-11.18-10.22-24.32-10.22-38.38v-73.68h397.87c-4.84,35.71-33.96,63.16-69.16,63.16H120.48c-5.51,0-9.98,4.71-9.98,10.53s4.47,10.53,9.98,10.53h259.54c35.2,0,64.32,27.45,69.16,63.16.47,3.44.71,6.95.71,10.53Z"/>
      </g>
    </g>
    <g id="Layer_3">
      <path class="cls-4" d="M431.85,287.56l-154.65,154.64c-14.23,14.24-37.31,14.24-51.55,0l180.42-180.42-12.89-12.88-154.64,154.64c-14.23,14.24-37.31,14.24-51.55,0l-6.44-6.44-6.44-6.45-25.78-25.77,180.42-180.42c14.24-14.24,37.32-14.23,51.55,0l-180.42,180.42,6.44,6.44,6.45,6.45,154.64-154.65c14.24-14.23,37.31-14.23,51.55,0l12.89,12.89c14.23,14.23,14.23,37.31,0,51.55Z"/>
      <path class="cls-4" d="M315.86,120.03l-6.44-6.45-.82.82c-1.53-2.59-3.4-5.03-5.62-7.26-7.09-7.09-16.38-10.64-25.67-10.68-.01-.74-.03-1.49-.08-2.24-.04-.66-.1-1.32-.18-1.98-.35-2.93-1.05-5.83-2.11-8.62-1.77-4.67-4.54-9.05-8.3-12.82-.78-.78-1.6-1.52-2.43-2.21l.1-.11c-7.11-7.11-16.44-10.67-25.77-10.67s-18.66,3.56-25.77,10.67L32.35,248.9l78.69,78.69,24.4,24.4,180.42-180.41c14.24-14.24,14.24-37.32,0-51.55ZM96.78,261.78l-12.88-12.88L238.54,94.25l12.89,12.89-154.65,154.64ZM135.45,300.45l-6.45-6.45-6.44-6.44,154.64-154.65,6.44,6.45,6.45,6.44-154.64,154.65Z"/>
      <path class="cls-4" d="M309.42,113.58l-.82.82c-1.53-2.59-3.4-5.03-5.62-7.26l6.44,6.44Z"/>
      <path class="cls-4" d="M266.64,70.8c-.78-.78-1.6-1.52-2.43-2.21l.1-.11,2.33,2.32Z"/>
    </g>
    <g id="Layer_5" class="cls-5">
      <path class="cls-4" d="M450,312.5H50v-125h400c0,27.62-22.38,50-50,50H100v25h300c27.62,0,50,22.39,50,50Z"/>
      <path class="cls-4" d="M450,387.5v25c0,27.61-22.39,50-50,50H100c-27.61,0-50-22.39-50-50h0s350,0,350,0v-25s-300,0-300,0c-27.61,0-50-22.39-50-50v-12.5s50,0,50,0v12.5s300,0,300,0c27.61,0,50,22.39,50,50Z"/>
      <path class="cls-4" d="M450,162.5v12.5s-1.58,0-1.58,0c1.03-4,1.58-8.18,1.58-12.5Z"/>
      <path class="cls-4" d="M450,87.5v4.51c0-1.52-.07-3.03-.21-4.51h.21Z"/>
      <path class="cls-4" d="M400,37.5H50s0,137.5,0,137.5h50s0-12.5,0-12.5h300s0,12.5,0,12.5h48.42c1.03-4,1.58-8.18,1.58-12.5,0-13.75-5.56-26.21-14.54-35.25.72-.73,1.42-1.48,2.1-2.25.6-.68,1.18-1.38,1.75-2.1,2.5-3.18,4.63-6.67,6.31-10.4,2.81-6.25,4.38-13.19,4.38-20.49,0-1.52-.07-3.03-.21-4.51h.21,0c0-27.61-22.39-50-50-50ZM400,112.5H100s0-25,0-25h300s0,25,0,25Z"/>
    </g>
    <g id="Layer_4" class="cls-5">
      <path class="cls-4" d="M399.19,167.67l-233.28,233.28-68.61-68.61,233.28-233.28c15.16,15.16,14.39,40.5-1.72,56.6l-174.96,174.96,13.72,13.72,174.96-174.96c16.11-16.11,41.45-16.87,56.6-1.72Z"/>
      <path class="cls-4" d="M440.35,208.83l13.72,13.72c15.16,15.16,14.39,40.5-1.72,56.6l-174.96,174.96c-16.1,16.1-41.45,16.87-56.6,1.72h0s204.12-204.12,204.12-204.12l-13.72-13.72-174.96,174.96c-16.1,16.1-41.45,16.87-56.6,1.72l-6.86-6.86,29.16-29.16,6.86,6.86,174.96-174.96c16.1-16.1,41.45-16.87,56.6-1.72Z"/>
      <path class="cls-4" d="M316.85,85.33l6.86,6.86-.92.92c-1.59-2.8-3.57-5.41-5.94-7.78Z"/>
      <path class="cls-4" d="M275.69,44.16l2.48,2.48c-.83-.83-1.7-1.62-2.6-2.35l.12-.12Z"/>
      <path class="cls-4" d="M219.08,45.88L14.96,250l75.47,75.47,29.16-29.16-6.86-6.86,174.96-174.96,6.86,6.86,28.24-28.24c-1.59-2.8-3.57-5.41-5.94-7.78-7.55-7.55-17.63-11.14-27.83-10.87.02-.82.02-1.64-.01-2.46-.02-.72-.07-1.45-.13-2.17-.29-3.2-.96-6.36-2.03-9.39-1.79-5.07-4.69-9.79-8.69-13.8-.83-.83-1.7-1.62-2.6-2.35l.12-.12h0c-15.16-15.16-40.5-14.39-56.6,1.72ZM260.25,87.05l-174.96,174.96-13.72-13.72L246.53,73.32l13.72,13.72Z"/>
    </g>
  </g>
</svg>