<?xml version="1.0" encoding="UTF-8"?>
<svg id="Layer_1" xmlns="http://www.w3.org/2000/svg" version="1.1" viewBox="0 0 280 40">
  <!-- Generator: Adobe Illustrator 29.6.1, SVG Export Plug-In . SVG Version: 2.1.1 Build 9)  -->
  <defs>
    <style>
      .st0, .st1 {
        fill: #231f20;
      }

      .st2 {
        fill: #fff;
      }

      .st1 {
        display: none;
        font-family: ToppanBunkyuMidashiGothicStdN-ExtraBold-83pv-RKSJ-H, 'Toppan Bunkyu Midashi Gothic';
        font-size: 34.19px;
        font-weight: 700;
      }
    </style>
  </defs>
  <text class="st1" transform="translate(1.63 32.59)"><tspan x="0" y="0">ティーカ</tspan></text>
  <g>
    <path class="st2" d="M164.08,31.17c0,3.04-2.14,5.13-5.01,5.13-1.66,0-3.06-.73-3.88-2.09v1.99h-1.3v-14.19h1.36v6.04c.84-1.3,2.22-1.99,3.82-1.99,2.87,0,5.01,2.07,5.01,5.11ZM162.72,31.17c0-2.35-1.62-3.92-3.75-3.92s-3.75,1.57-3.75,3.92,1.61,3.92,3.75,3.92,3.75-1.57,3.75-3.92Z"/>
    <path class="st2" d="M175.01,26.13l-5.03,11.27c-.84,1.97-1.91,2.6-3.34,2.6-.94,0-1.83-.31-2.45-.92l.63-1.01c.5.5,1.11.77,1.83.77.9,0,1.51-.42,2.08-1.68l.44-.98-4.49-10.04h1.41l3.78,8.55,3.78-8.55h1.34,0Z"/>
    <path class="st2" d="M193.39,32.63c0,2.28-1.68,3.58-5.03,3.58h-6.15v-13.39h5.77c2.98,0,4.7,1.26,4.7,3.44,0,1.53-.82,2.54-2.04,3.04,1.72.38,2.75,1.51,2.75,3.33ZM183.63,23.97v4.86h4.26c2.14,0,3.38-.82,3.38-2.43s-1.24-2.43-3.38-2.43h-4.26ZM191.98,32.51c0-1.74-1.28-2.51-3.63-2.51h-4.72v5.03h4.72c2.35,0,3.63-.77,3.63-2.52Z"/>
    <path class="st2" d="M205.09,31.59h-8.41c.15,2.1,1.76,3.5,3.96,3.5,1.22,0,2.31-.44,3.08-1.32l.76.88c-.9,1.07-2.29,1.65-3.88,1.65-3.13,0-5.27-2.14-5.27-5.13s2.08-5.11,4.91-5.11,4.87,2.09,4.87,5.11c0,.11-.02.27-.02.42ZM196.68,30.57h7.13c-.17-1.97-1.61-3.35-3.57-3.35s-3.38,1.38-3.55,3.35Z"/>
    <path class="st2" d="M217.13,30.37v5.83h-1.36v-5.7c0-2.12-1.11-3.21-3.02-3.21-2.16,0-3.52,1.34-3.52,3.63v5.28h-1.36v-10.06h1.3v1.86c.73-1.22,2.08-1.93,3.82-1.93,2.45,0,4.13,1.42,4.13,4.3h0Z"/>
    <path class="st2" d="M224.83,34.58l.55-1.09c.96.94,2.66,1.63,4.41,1.63,2.5,0,3.59-1.05,3.59-2.37,0-3.67-8.24-1.42-8.24-6.37,0-1.97,1.53-3.67,4.93-3.67,1.51,0,3.08.44,4.15,1.19l-.48,1.13c-1.15-.75-2.48-1.11-3.67-1.11-2.45,0-3.54,1.09-3.54,2.43,0,3.67,8.24,1.45,8.24,6.33,0,1.97-1.57,3.65-4.99,3.65-2.01,0-3.97-.71-4.97-1.74Z"/>
    <path class="st2" d="M254.16,30.37v5.83h-1.36v-5.7c0-2.12-1.07-3.21-2.89-3.21-2.06,0-3.36,1.34-3.36,3.63v5.28h-1.36v-5.7c0-2.12-1.07-3.21-2.9-3.21-2.04,0-3.36,1.34-3.36,3.63v5.28h-1.36v-10.06h1.3v1.84c.71-1.21,2.01-1.91,3.69-1.91s2.96.71,3.57,2.12c.73-1.3,2.16-2.12,3.97-2.12,2.45,0,4.05,1.42,4.05,4.3h0Z"/>
    <path class="st2" d="M257.55,22.96c0-.52.44-.96.99-.96s.99.42.99.94c0,.55-.42.99-.99.99s-.99-.44-.99-.98ZM257.85,26.13h1.36v10.06h-1.36s0-10.06,0-10.06Z"/>
    <path class="st2" d="M268.29,35.59c-.54.48-1.34.71-2.12.71-1.89,0-2.94-1.07-2.94-2.93v-6.08h-1.8v-1.15h1.8v-2.2h1.36v2.2h3.06v1.15h-3.06v6.01c0,1.19.61,1.84,1.74,1.84.55,0,1.11-.17,1.49-.52l.48.98h0Z"/>
    <path class="st2" d="M280,30.37v5.83h-1.36v-5.7c0-2.12-1.11-3.21-3.02-3.21-2.16,0-3.52,1.34-3.52,3.63v5.28h-1.36v-14.19h1.36v5.89c.75-1.17,2.06-1.84,3.76-1.84,2.45,0,4.13,1.42,4.13,4.3Z"/>
  </g>
  <g>
    <g>
      <path class="st0" d="M7.59,18.49l-7.25.14-.34-.38v-6.1l.38-.34,7.15.14h22.66l6.77-.14.38.34v6.1l-.34.38-6.82-.14h-6.67c-.34,6.48-2.98,12.82-7.73,17.33-1.63,1.54-3.46,2.74-5.43,3.89-.38.19-.58.29-.82.29s-.53-.14-1.01-.48l-6.1-3.79c7.59-2.88,12.58-8.5,13.21-17.24H7.59ZM25.35,7.87h-13.3l-6.39.14-.34-.38V1.44l.43-.29,5.91.14h13.64l6.53-.14.38.34v6.15l-.34.38-6.53-.14Z"/>
      <path class="st0" d="M59.3,28.28l.19,10.95h-7.15l.19-10.71v-4.18c-2.5,1.78-5.14,3.41-8.55,5.33-.72.34-.82.29-1.34-.19l-4.56-3.94c9.32-4.37,15.99-9.32,22.42-16.61l.48-.05,5.14,3.65.05.43c-2.5,2.54-4.8,4.61-6.87,6.39v8.93Z"/>
      <path class="st0" d="M101.11,23.82h-21.46l-7.15.14-.34-.38v-6.87l.43-.29,6.87.14h21.42l7.39-.14.38.34v6.82l-.34.38-7.2-.14Z"/>
      <path class="st0" d="M135.97,14.36c-.62,4.18-1.68,7.59-3.36,10.71-3.41,6.39-7.97,10.28-13.69,13.44-.24.14-.43.24-.58.24-.24,0-.43-.14-.91-.48l-5.43-4.03c6.29-3.12,10.61-6.67,13.44-12.05,1.15-2.21,2.02-4.75,2.55-7.83h-4.42l-6.87.14-.34-.38v-6.29l.43-.29,6.72.14h5.23c.1-2.16.19-4.56.19-7.3l.34-.38h7.2l.34.34c0,2.69-.05,5.14-.19,7.35h8.02l5.91-.14.34.43c-.34,7.73-1.15,16.81-2.06,20.65-1.49,6.34-2.88,9.22-11.57,9.22-1.25,0-1.3-.1-1.63-.86l-2.83-6.72c1.87.1,3.6.14,5.33.1,1.49-.05,2.45-.34,3.36-4.18.62-2.64,1.15-7.54,1.34-11.81h-6.87Z"/>
    </g>
    <g>
      <path class="st2" d="M7.59,18.49l-7.25.14-.34-.38v-6.1l.38-.34,7.15.14h22.66l6.77-.14.38.34v6.1l-.34.38-6.82-.14h-6.67c-.34,6.48-2.98,12.82-7.73,17.33-1.63,1.54-3.46,2.74-5.43,3.89-.38.19-.58.29-.82.29s-.53-.14-1.01-.48l-6.1-3.79c7.59-2.88,12.58-8.5,13.21-17.24H7.59ZM25.35,7.87h-13.3l-6.39.14-.34-.38V1.44l.43-.29,5.91.14h13.64l6.53-.14.38.34v6.15l-.34.38-6.53-.14Z"/>
      <path class="st2" d="M59.3,28.28l.19,10.95h-7.15l.19-10.71v-4.18c-2.5,1.78-5.14,3.41-8.55,5.33-.72.34-.82.29-1.34-.19l-4.56-3.94c9.32-4.37,15.99-9.32,22.42-16.61l.48-.05,5.14,3.65.05.43c-2.5,2.54-4.8,4.61-6.87,6.39v8.93Z"/>
      <path class="st2" d="M101.11,23.82h-21.46l-7.15.14-.34-.38v-6.87l.43-.29,6.87.14h21.42l7.39-.14.38.34v6.82l-.34.38-7.2-.14Z"/>
      <path class="st2" d="M135.97,14.36c-.62,4.18-1.68,7.59-3.36,10.71-3.41,6.39-7.97,10.28-13.69,13.44-.24.14-.43.24-.58.24-.24,0-.43-.14-.91-.48l-5.43-4.03c6.29-3.12,10.61-6.67,13.44-12.05,1.15-2.21,2.02-4.75,2.55-7.83h-4.42l-6.87.14-.34-.38v-6.29l.43-.29,6.72.14h5.23c.1-2.16.19-4.56.19-7.3l.34-.38h7.2l.34.34c0,2.69-.05,5.14-.19,7.35h8.02l5.91-.14.34.43c-.34,7.73-1.15,16.81-2.06,20.65-1.49,6.34-2.88,9.22-11.57,9.22-1.25,0-1.3-.1-1.63-.86l-2.83-6.72c1.87.1,3.6.14,5.33.1,1.49-.05,2.45-.34,3.36-4.18.62-2.64,1.15-7.54,1.34-11.81h-6.87Z"/>
    </g>
  </g>
</svg>