<?xml version="1.0" encoding="UTF-8"?>
<svg id="Layer_1" xmlns="http://www.w3.org/2000/svg" version="1.1" viewBox="0 0 280 40">
  <!-- Generator: Adobe Illustrator 29.6.1, SVG Export Plug-In . SVG Version: 2.1.1 Build 9)  -->
  <defs>
    <style>
      .st0 {
        fill: #fff;
        stroke: #fff;
        stroke-miterlimit: 10;
        stroke-width: .75px;
      }

      .st1 {
        display: none;
        fill: #231f20;
        font-family: PTMono-Bold, 'PT Mono';
        font-size: 5.24px;
        font-weight: 700;
      }
    </style>
  </defs>
  <text class="st1" transform="translate(0 3.68)"><tspan x="0" y="0" xml:space="preserve">  ________________ __ ___       __             ____            _____           _ __  __  </tspan><tspan x="0" y="6.29" xml:space="preserve"> /_  __/  _/  _/ //_//   |     / /_  __  __   / __ )___  ____ / ___/____ ___  (_) /_/ /_ </tspan><tspan x="0" y="12.58" xml:space="preserve">  / /  / / / // ,&lt;  / /| |    / __ \/ / / /  / __  / _ \/ __ \\__ \/ __ `__ \/ / __/ __ \</tspan><tspan x="0" y="18.88" xml:space="preserve"> / / _/ /_/ // /| |/ ___ |   / /_/ / /_/ /  / /_/ /  __/ / / /__/ / / / / / / / /_/ / / /</tspan><tspan x="0" y="25.17" xml:space="preserve">/_/ /___/___/_/ |_/_/  |_|  /_.___/\__, /  /_____/\___/_/ /_/____/_/ /_/ /_/_/\__/_/ /_/ </tspan><tspan x="0" y="31.46" xml:space="preserve">                                  /____/                                                 </tspan></text>
  <g>
    <path class="st0" d="M6.69,4.3h2.33v.56h-2.33v-.56Z"/>
    <path class="st0" d="M9.84,4.3h2.33v.56h-2.33v-.56Z"/>
    <path class="st0" d="M12.99,4.3h2.33v.56h-2.33v-.56Z"/>
    <path class="st0" d="M16.13,4.3h2.33v.56h-2.33v-.56Z"/>
    <path class="st0" d="M19.28,4.3h2.33v.56h-2.33v-.56Z"/>
    <path class="st0" d="M22.42,4.3h2.33v.56h-2.33v-.56Z"/>
    <path class="st0" d="M25.57,4.3h2.33v.56h-2.33v-.56Z"/>
    <path class="st0" d="M28.72,4.3h2.33v.56h-2.33v-.56Z"/>
    <path class="st0" d="M31.86,4.3h2.33v.56h-2.33v-.56Z"/>
    <path class="st0" d="M35.01,4.3h2.33v.56h-2.33v-.56Z"/>
    <path class="st0" d="M38.15,4.3h2.33v.56h-2.33v-.56Z"/>
    <path class="st0" d="M41.3,4.3h2.33v.56h-2.33v-.56Z"/>
    <path class="st0" d="M44.45,4.3h2.33v.56h-2.33v-.56Z"/>
    <path class="st0" d="M47.59,4.3h2.33v.56h-2.33v-.56Z"/>
    <path class="st0" d="M50.74,4.3h2.33v.56h-2.33v-.56Z"/>
    <path class="st0" d="M53.88,4.3h2.33v.56h-2.33v-.56Z"/>
    <path class="st0" d="M60.18,4.3h2.33v.56h-2.33v-.56Z"/>
    <path class="st0" d="M63.32,4.3h2.33v.56h-2.33v-.56Z"/>
    <path class="st0" d="M69.61,4.3h2.33v.56h-2.33v-.56Z"/>
    <path class="st0" d="M72.76,4.3h2.33v.56h-2.33v-.56Z"/>
    <path class="st0" d="M75.91,4.3h2.33v.56h-2.33v-.56Z"/>
    <path class="st0" d="M101.08,4.3h2.33v.56h-2.33v-.56Z"/>
    <path class="st0" d="M104.22,4.3h2.33v.56h-2.33v-.56Z"/>
    <path class="st0" d="M148.27,4.3h2.33v.56h-2.33v-.56Z"/>
    <path class="st0" d="M151.41,4.3h2.33v.56h-2.33v-.56Z"/>
    <path class="st0" d="M154.56,4.3h2.33v.56h-2.33v-.56Z"/>
    <path class="st0" d="M157.7,4.3h2.33v.56h-2.33v-.56Z"/>
    <path class="st0" d="M198.6,4.3h2.33v.56h-2.33v-.56Z"/>
    <path class="st0" d="M201.75,4.3h2.33v.56h-2.33v-.56Z"/>
    <path class="st0" d="M204.9,4.3h2.33v.56h-2.33v-.56Z"/>
    <path class="st0" d="M208.04,4.3h2.33v.56h-2.33v-.56Z"/>
    <path class="st0" d="M211.19,4.3h2.33v.56h-2.33v-.56Z"/>
    <path class="st0" d="M248.94,4.3h2.33v.56h-2.33v-.56Z"/>
    <path class="st0" d="M255.23,4.3h2.33v.56h-2.33v-.56Z"/>
    <path class="st0" d="M258.38,4.3h2.33v.56h-2.33v-.56Z"/>
    <path class="st0" d="M267.82,4.3h2.33v.56h-2.33v-.56Z"/>
    <path class="st0" d="M270.96,4.3h2.33v.56h-2.33v-.56Z"/>
    <path class="st0" d="M5.39,6.24l.51.23-1.87,4.24-.51-.24,1.87-4.23Z"/>
    <path class="st0" d="M6.69,10.59h2.33v.56h-2.33v-.56Z"/>
    <path class="st0" d="M16.13,10.59h2.33v.56h-2.33v-.56Z"/>
    <path class="st0" d="M19.28,10.59h2.33v.56h-2.33v-.56Z"/>
    <path class="st0" d="M24.26,6.24l.51.23-1.87,4.24-.51-.24,1.87-4.23Z"/>
    <path class="st0" d="M31.86,10.59h2.33v.56h-2.33v-.56Z"/>
    <path class="st0" d="M36.85,6.24l.51.23-1.87,4.24-.51-.24,1.87-4.23Z"/>
    <path class="st0" d="M44.45,10.59h2.33v.56h-2.33v-.56Z"/>
    <path class="st0" d="M49.43,6.24l.51.23-1.87,4.24-.51-.24,1.87-4.23Z"/>
    <path class="st0" d="M55.72,6.24l.51.23-1.87,4.24-.51-.24,1.87-4.23Z"/>
    <path class="st0" d="M58.87,6.24l.51.23-1.87,4.24-.51-.24,1.87-4.23Z"/>
    <path class="st0" d="M60.18,10.59h2.33v.56h-2.33v-.56Z"/>
    <path class="st0" d="M65.16,6.24l.51.23-1.87,4.24-.51-.24,1.87-4.23Z"/>
    <path class="st0" d="M68.31,6.24l.51.23-1.87,4.24-.51-.24,1.87-4.23Z"/>
    <path class="st0" d="M79.93,6.3h.56v4.35h-.56v-4.35Z"/>
    <path class="st0" d="M99.77,6.24l.51.23-1.87,4.24-.51-.24,1.87-4.23Z"/>
    <path class="st0" d="M106.06,6.24l.51.23-1.87,4.24-.51-.24,1.87-4.23Z"/>
    <path class="st0" d="M107.37,10.59h2.33v.56h-2.33v-.56Z"/>
    <path class="st0" d="M116.81,10.59h2.33v.56h-2.33v-.56Z"/>
    <path class="st0" d="M119.95,10.59h2.33v.56h-2.33v-.56Z"/>
    <path class="st0" d="M129.39,10.59h2.33v.56h-2.33v-.56Z"/>
    <path class="st0" d="M132.54,10.59h2.33v.56h-2.33v-.56Z"/>
    <path class="st0" d="M146.96,6.24l.51.23-1.87,4.24-.51-.24,1.87-4.23Z"/>
    <path class="st0" d="M151.41,10.59h2.33v.56h-2.33v-.56Z"/>
    <path class="st0" d="M154.56,10.59h2.33v.56h-2.33v-.56Z"/>
    <path class="st0" d="M161.07,10.51c.11-.02.23-.07.39-.14.15-.07.3-.18.45-.32.14-.14.27-.32.37-.54.1-.22.15-.49.15-.81s-.05-.62-.14-.84c-.1-.22-.21-.41-.35-.55s-.29-.25-.44-.32c-.16-.07-.29-.12-.42-.15l.13-.56c.25.05.48.13.71.25.23.12.44.28.61.48.18.2.32.44.43.72s.16.61.16.97-.05.7-.16.98-.25.52-.43.71c-.18.2-.38.35-.61.47-.23.12-.47.19-.71.23l-.13-.57Z"/>
    <path class="st0" d="M164,10.59h2.33v.56h-2.33v-.56Z"/>
    <path class="st0" d="M167.14,10.59h2.33v.56h-2.33v-.56Z"/>
    <path class="st0" d="M170.29,10.59h2.33v.56h-2.33v-.56Z"/>
    <path class="st0" d="M179.73,10.59h2.33v.56h-2.33v-.56Z"/>
    <path class="st0" d="M182.87,10.59h2.33v.56h-2.33v-.56Z"/>
    <path class="st0" d="M186.02,10.59h2.33v.56h-2.33v-.56Z"/>
    <path class="st0" d="M189.17,10.59h2.33v.56h-2.33v-.56Z"/>
    <path class="st0" d="M197.3,6.24l.51.23-1.87,4.24-.51-.24,1.87-4.23Z"/>
    <path class="st0" d="M201.75,10.59h2.33v.56h-2.33v-.56Z"/>
    <path class="st0" d="M204.9,10.59h2.33v.56h-2.33v-.56Z"/>
    <path class="st0" d="M208.04,10.59h2.33v.56h-2.33v-.56Z"/>
    <path class="st0" d="M213.03,6.24l.51.23-1.87,4.24-.51-.24,1.87-4.23Z"/>
    <path class="st0" d="M214.33,10.59h2.33v.56h-2.33v-.56Z"/>
    <path class="st0" d="M217.48,10.59h2.33v.56h-2.33v-.56Z"/>
    <path class="st0" d="M220.62,10.59h2.33v.56h-2.33v-.56Z"/>
    <path class="st0" d="M223.77,10.59h2.33v.56h-2.33v-.56Z"/>
    <path class="st0" d="M230.06,10.59h2.33v.56h-2.33v-.56Z"/>
    <path class="st0" d="M233.21,10.59h2.33v.56h-2.33v-.56Z"/>
    <path class="st0" d="M236.36,10.59h2.33v.56h-2.33v-.56Z"/>
    <path class="st0" d="M247.77,11.09c-.25-.04-.48-.12-.71-.23s-.44-.27-.61-.47c-.18-.2-.32-.43-.43-.71s-.16-.6-.16-.98.05-.69.16-.97.25-.52.43-.72c.18-.2.38-.36.61-.48.23-.12.47-.2.71-.25l.13.56c-.12.03-.26.08-.42.15-.16.07-.3.18-.44.32s-.26.32-.35.55c-.1.22-.14.5-.14.84s.05.59.15.81c.1.22.22.4.37.54.14.14.29.25.45.32.15.07.28.12.39.14l-.13.57Z"/>
    <path class="st0" d="M248.94,10.59h2.33v.56h-2.33v-.56Z"/>
    <path class="st0" d="M252.31,10.51c.11-.02.23-.07.39-.14.15-.07.3-.18.45-.32.14-.14.27-.32.37-.54.1-.22.15-.49.15-.81s-.05-.62-.14-.84c-.1-.22-.21-.41-.35-.55s-.29-.25-.44-.32c-.16-.07-.29-.12-.42-.15l.13-.56c.25.05.48.13.71.25.23.12.44.28.61.48.18.2.32.44.43.72s.16.61.16.97-.05.7-.16.98-.25.52-.43.71c-.18.2-.38.35-.61.47-.23.12-.47.19-.71.23l-.13-.57Z"/>
    <path class="st0" d="M260.22,6.24l.51.23-1.87,4.24-.51-.24,1.87-4.23Z"/>
    <path class="st0" d="M261.52,10.59h2.33v.56h-2.33v-.56Z"/>
    <path class="st0" d="M266.51,6.24l.51.23-1.87,4.24-.51-.24,1.87-4.23Z"/>
    <path class="st0" d="M272.8,6.24l.51.23-1.87,4.24-.51-.24,1.87-4.23Z"/>
    <path class="st0" d="M274.11,10.59h2.33v.56h-2.33v-.56Z"/>
    <path class="st0" d="M8.53,12.53l.51.23-1.87,4.24-.51-.24,1.87-4.23Z"/>
    <path class="st0" d="M14.83,12.53l.51.23-1.87,4.24-.51-.24,1.87-4.23Z"/>
    <path class="st0" d="M24.26,12.53l.51.23-1.87,4.24-.51-.24,1.87-4.23Z"/>
    <path class="st0" d="M30.56,12.53l.51.23-1.87,4.24-.51-.24,1.87-4.23Z"/>
    <path class="st0" d="M36.85,12.53l.51.23-1.87,4.24-.51-.24,1.87-4.23Z"/>
    <path class="st0" d="M43.14,12.53l.51.23-1.87,4.24-.51-.24,1.87-4.23Z"/>
    <path class="st0" d="M46.29,12.53l.51.23-1.87,4.24-.51-.24,1.87-4.23Z"/>
    <path class="st0" d="M51.47,15.93c0-.12.04-.21.12-.28.08-.07.18-.1.3-.1.19,0,.34.06.43.19.1.13.15.28.15.47,0,.16-.03.3-.09.43-.06.13-.14.24-.24.34-.1.09-.21.17-.33.23-.12.06-.24.1-.36.12l-.14-.29c.08-.02.17-.05.25-.09.09-.04.16-.09.23-.14.07-.06.13-.12.18-.2.05-.08.07-.16.08-.25-.11.02-.19.02-.27,0s-.13-.04-.18-.08c-.05-.04-.08-.09-.1-.15-.02-.06-.03-.12-.03-.19Z"/>
    <path class="st0" d="M53.66,14.72v-.26l2.45-1.52.3.47-1.91,1.15,1.91,1.13-.3.47-2.45-1.44Z"/>
    <path class="st0" d="M65.16,12.53l.51.23-1.87,4.24-.51-.24,1.87-4.23Z"/>
    <path class="st0" d="M71.45,12.53l.51.23-1.87,4.24-.51-.24,1.87-4.23Z"/>
    <path class="st0" d="M73.64,12.6h.56v4.35h-.56v-4.35Z"/>
    <path class="st0" d="M79.93,12.6h.56v4.35h-.56v-4.35Z"/>
    <path class="st0" d="M96.62,12.53l.51.23-1.87,4.24-.51-.24,1.87-4.23Z"/>
    <path class="st0" d="M101.08,16.88h2.33v.56h-2.33v-.56Z"/>
    <path class="st0" d="M104.22,16.88h2.33v.56h-2.33v-.56Z"/>
    <path class="st0" d="M112.89,16.76l-.52.24-1.9-4.24.54-.23,1.89,4.23Z"/>
    <path class="st0" d="M115.5,12.53l.51.23-1.87,4.24-.51-.24,1.87-4.23Z"/>
    <path class="st0" d="M121.79,12.53l.51.23-1.87,4.24-.51-.24,1.87-4.23Z"/>
    <path class="st0" d="M128.08,12.53l.51.23-1.87,4.24-.51-.24,1.87-4.23Z"/>
    <path class="st0" d="M134.38,12.53l.51.23-1.87,4.24-.51-.24,1.87-4.23Z"/>
    <path class="st0" d="M143.81,12.53l.51.23-1.87,4.24-.51-.24,1.87-4.23Z"/>
    <path class="st0" d="M148.27,16.88h2.33v.56h-2.33v-.56Z"/>
    <path class="st0" d="M151.41,16.88h2.33v.56h-2.33v-.56Z"/>
    <path class="st0" d="M162.69,12.53l.51.23-1.87,4.24-.51-.24,1.87-4.23Z"/>
    <path class="st0" d="M167.14,16.88h2.33v.56h-2.33v-.56Z"/>
    <path class="st0" d="M175.81,16.76l-.52.24-1.9-4.24.54-.23,1.89,4.23Z"/>
    <path class="st0" d="M178.42,12.53l.51.23-1.87,4.24-.51-.24,1.87-4.23Z"/>
    <path class="st0" d="M182.87,16.88h2.33v.56h-2.33v-.56Z"/>
    <path class="st0" d="M186.02,16.88h2.33v.56h-2.33v-.56Z"/>
    <path class="st0" d="M194.69,16.76l-.52.24-1.9-4.24.54-.23,1.89,4.23Z"/>
    <path class="st0" d="M197.83,16.76l-.52.24-1.9-4.24.54-.23,1.89,4.23Z"/>
    <path class="st0" d="M198.6,16.88h2.33v.56h-2.33v-.56Z"/>
    <path class="st0" d="M201.75,16.88h2.33v.56h-2.33v-.56Z"/>
    <path class="st0" d="M210.42,16.76l-.52.24-1.9-4.24.54-.23,1.89,4.23Z"/>
    <path class="st0" d="M213.03,12.53l.51.23-1.87,4.24-.51-.24,1.87-4.23Z"/>
    <path class="st0" d="M217.48,16.88h2.33v.56h-2.33v-.56Z"/>
    <path class="st0" d="M220.62,16.88h2.33v.56h-2.33v-.56Z"/>
    <path class="st0" d="M228.59,13.3h-.38l-.8-.81h.86l.31.81Z"/>
    <path class="st0" d="M230.06,16.88h2.33v.56h-2.33v-.56Z"/>
    <path class="st0" d="M233.21,16.88h2.33v.56h-2.33v-.56Z"/>
    <path class="st0" d="M241.88,16.76l-.52.24-1.9-4.24.54-.23,1.89,4.23Z"/>
    <path class="st0" d="M244.49,12.53l.51.23-1.87,4.24-.51-.24,1.87-4.23Z"/>
    <path class="st0" d="M250.78,12.53l.51.23-1.87,4.24-.51-.24,1.87-4.23Z"/>
    <path class="st0" d="M255.23,16.88h2.33v.56h-2.33v-.56Z"/>
    <path class="st0" d="M258.38,16.88h2.33v.56h-2.33v-.56Z"/>
    <path class="st0" d="M263.36,12.53l.51.23-1.87,4.24-.51-.24,1.87-4.23Z"/>
    <path class="st0" d="M267.82,16.88h2.33v.56h-2.33v-.56Z"/>
    <path class="st0" d="M270.96,16.88h2.33v.56h-2.33v-.56Z"/>
    <path class="st0" d="M279.63,16.76l-.52.24-1.9-4.24.54-.23,1.89,4.23Z"/>
    <path class="st0" d="M5.39,18.83l.51.23-1.87,4.24-.51-.24,1.87-4.23Z"/>
    <path class="st0" d="M11.68,18.83l.51.23-1.87,4.24-.51-.24,1.87-4.23Z"/>
    <path class="st0" d="M16.13,23.17h2.33v.56h-2.33v-.56Z"/>
    <path class="st0" d="M21.12,18.83l.51.23-1.87,4.24-.51-.24,1.87-4.23Z"/>
    <path class="st0" d="M27.41,18.83l.51.23-1.87,4.24-.51-.24,1.87-4.23Z"/>
    <path class="st0" d="M28.72,23.17h2.33v.56h-2.33v-.56Z"/>
    <path class="st0" d="M33.7,18.83l.51.23-1.87,4.24-.51-.24,1.87-4.23Z"/>
    <path class="st0" d="M39.99,18.83l.51.23-1.87,4.24-.51-.24,1.87-4.23Z"/>
    <path class="st0" d="M43.14,18.83l.51.23-1.87,4.24-.51-.24,1.87-4.23Z"/>
    <path class="st0" d="M49.43,18.83l.51.23-1.87,4.24-.51-.24,1.87-4.23Z"/>
    <path class="st0" d="M51.62,18.89h.56v4.35h-.56v-4.35Z"/>
    <path class="st0" d="M57.91,18.89h.56v4.35h-.56v-4.35Z"/>
    <path class="st0" d="M62.02,18.83l.51.23-1.87,4.24-.51-.24,1.87-4.23Z"/>
    <path class="st0" d="M66.47,23.17h2.33v.56h-2.33v-.56Z"/>
    <path class="st0" d="M69.61,23.17h2.33v.56h-2.33v-.56Z"/>
    <path class="st0" d="M72.76,23.17h2.33v.56h-2.33v-.56Z"/>
    <path class="st0" d="M79.93,18.89h.56v4.35h-.56v-4.35Z"/>
    <path class="st0" d="M93.48,18.83l.51.23-1.87,4.24-.51-.24,1.87-4.23Z"/>
    <path class="st0" d="M99.77,18.83l.51.23-1.87,4.24-.51-.24,1.87-4.23Z"/>
    <path class="st0" d="M101.08,23.17h2.33v.56h-2.33v-.56Z"/>
    <path class="st0" d="M106.06,18.83l.51.23-1.87,4.24-.51-.24,1.87-4.23Z"/>
    <path class="st0" d="M112.35,18.83l.51.23-1.87,4.24-.51-.24,1.87-4.23Z"/>
    <path class="st0" d="M118.65,18.83l.51.23-1.87,4.24-.51-.24,1.87-4.23Z"/>
    <path class="st0" d="M119.95,23.17h2.33v.56h-2.33v-.56Z"/>
    <path class="st0" d="M124.94,18.83l.51.23-1.87,4.24-.51-.24,1.87-4.23Z"/>
    <path class="st0" d="M131.23,18.83l.51.23-1.87,4.24-.51-.24,1.87-4.23Z"/>
    <path class="st0" d="M140.67,18.83l.51.23-1.87,4.24-.51-.24,1.87-4.23Z"/>
    <path class="st0" d="M146.96,18.83l.51.23-1.87,4.24-.51-.24,1.87-4.23Z"/>
    <path class="st0" d="M148.27,23.17h2.33v.56h-2.33v-.56Z"/>
    <path class="st0" d="M153.25,18.83l.51.23-1.87,4.24-.51-.24,1.87-4.23Z"/>
    <path class="st0" d="M159.54,18.83l.51.23-1.87,4.24-.51-.24,1.87-4.23Z"/>
    <path class="st0" d="M167.14,23.17h2.33v.56h-2.33v-.56Z"/>
    <path class="st0" d="M170.29,23.17h2.33v.56h-2.33v-.56Z"/>
    <path class="st0" d="M175.27,18.83l.51.23-1.87,4.24-.51-.24,1.87-4.23Z"/>
    <path class="st0" d="M181.57,18.83l.51.23-1.87,4.24-.51-.24,1.87-4.23Z"/>
    <path class="st0" d="M187.86,18.83l.51.23-1.87,4.24-.51-.24,1.87-4.23Z"/>
    <path class="st0" d="M194.15,18.83l.51.23-1.87,4.24-.51-.24,1.87-4.23Z"/>
    <path class="st0" d="M195.46,23.17h2.33v.56h-2.33v-.56Z"/>
    <path class="st0" d="M198.6,23.17h2.33v.56h-2.33v-.56Z"/>
    <path class="st0" d="M203.59,18.83l.51.23-1.87,4.24-.51-.24,1.87-4.23Z"/>
    <path class="st0" d="M209.88,18.83l.51.23-1.87,4.24-.51-.24,1.87-4.23Z"/>
    <path class="st0" d="M216.17,18.83l.51.23-1.87,4.24-.51-.24,1.87-4.23Z"/>
    <path class="st0" d="M222.46,18.83l.51.23-1.87,4.24-.51-.24,1.87-4.23Z"/>
    <path class="st0" d="M228.76,18.83l.51.23-1.87,4.24-.51-.24,1.87-4.23Z"/>
    <path class="st0" d="M235.05,18.83l.51.23-1.87,4.24-.51-.24,1.87-4.23Z"/>
    <path class="st0" d="M241.34,18.83l.51.23-1.87,4.24-.51-.24,1.87-4.23Z"/>
    <path class="st0" d="M247.63,18.83l.51.23-1.87,4.24-.51-.24,1.87-4.23Z"/>
    <path class="st0" d="M253.93,18.83l.51.23-1.87,4.24-.51-.24,1.87-4.23Z"/>
    <path class="st0" d="M255.23,23.17h2.33v.56h-2.33v-.56Z"/>
    <path class="st0" d="M260.22,18.83l.51.23-1.87,4.24-.51-.24,1.87-4.23Z"/>
    <path class="st0" d="M266.51,18.83l.51.23-1.87,4.24-.51-.24,1.87-4.23Z"/>
    <path class="st0" d="M272.8,18.83l.51.23-1.87,4.24-.51-.24,1.87-4.23Z"/>
    <path class="st0" d="M279.09,18.83l.51.23-1.87,4.24-.51-.24,1.87-4.23Z"/>
    <path class="st0" d="M2.24,25.12l.51.23-1.87,4.24-.51-.24,1.87-4.23Z"/>
    <path class="st0" d="M3.55,29.46h2.33v.56h-2.33v-.56Z"/>
    <path class="st0" d="M8.53,25.12l.51.23-1.87,4.24-.51-.24,1.87-4.23Z"/>
    <path class="st0" d="M14.83,25.12l.51.23-1.87,4.24-.51-.24,1.87-4.23Z"/>
    <path class="st0" d="M16.13,29.46h2.33v.56h-2.33v-.56Z"/>
    <path class="st0" d="M19.28,29.46h2.33v.56h-2.33v-.56Z"/>
    <path class="st0" d="M22.42,29.46h2.33v.56h-2.33v-.56Z"/>
    <path class="st0" d="M27.41,25.12l.51.23-1.87,4.24-.51-.24,1.87-4.23Z"/>
    <path class="st0" d="M28.72,29.46h2.33v.56h-2.33v-.56Z"/>
    <path class="st0" d="M31.86,29.46h2.33v.56h-2.33v-.56Z"/>
    <path class="st0" d="M35.01,29.46h2.33v.56h-2.33v-.56Z"/>
    <path class="st0" d="M39.99,25.12l.51.23-1.87,4.24-.51-.24,1.87-4.23Z"/>
    <path class="st0" d="M41.3,29.46h2.33v.56h-2.33v-.56Z"/>
    <path class="st0" d="M46.29,25.12l.51.23-1.87,4.24-.51-.24,1.87-4.23Z"/>
    <path class="st0" d="M51.62,25.18h.56v4.35h-.56v-4.35Z"/>
    <path class="st0" d="M53.88,29.46h2.33v.56h-2.33v-.56Z"/>
    <path class="st0" d="M58.87,25.12l.51.23-1.87,4.24-.51-.24,1.87-4.23Z"/>
    <path class="st0" d="M60.18,29.46h2.33v.56h-2.33v-.56Z"/>
    <path class="st0" d="M65.16,25.12l.51.23-1.87,4.24-.51-.24,1.87-4.23Z"/>
    <path class="st0" d="M73.64,25.18h.56v4.35h-.56v-4.35Z"/>
    <path class="st0" d="M75.91,29.46h2.33v.56h-2.33v-.56Z"/>
    <path class="st0" d="M79.93,25.18h.56v4.35h-.56v-4.35Z"/>
    <path class="st0" d="M90.33,25.12l.51.23-1.87,4.24-.51-.24,1.87-4.23Z"/>
    <path class="st0" d="M91.64,29.46h2.33v.56h-2.33v-.56Z"/>
    <path class="st0" d="M95.52,28.51c0-.12.04-.22.12-.29.08-.07.18-.11.3-.11.13,0,.24.04.32.11.08.07.12.17.12.29s-.04.22-.12.29c-.08.07-.18.11-.32.11-.12,0-.23-.04-.3-.11-.08-.07-.12-.17-.12-.29Z"/>
    <path class="st0" d="M97.93,29.46h2.33v.56h-2.33v-.56Z"/>
    <path class="st0" d="M101.08,29.46h2.33v.56h-2.33v-.56Z"/>
    <path class="st0" d="M104.22,29.46h2.33v.56h-2.33v-.56Z"/>
    <path class="st0" d="M109.21,25.12l.51.23-1.87,4.24-.51-.24,1.87-4.23Z"/>
    <path class="st0" d="M112.89,29.35l-.52.24-1.9-4.24.54-.22,1.89,4.23Z"/>
    <path class="st0" d="M113.66,29.46h2.33v.56h-2.33v-.56Z"/>
    <path class="st0" d="M116.81,29.46h2.33v.56h-2.33v-.56Z"/>
    <path class="st0" d="M120.69,28.52c0-.12.04-.21.12-.28.08-.07.18-.11.3-.11.19,0,.34.06.43.19.1.12.15.28.15.47,0,.16-.03.3-.09.43-.06.13-.14.24-.24.34-.1.09-.21.17-.33.23-.12.06-.24.1-.36.12l-.14-.29c.08-.02.17-.05.25-.09.09-.04.16-.09.23-.14.07-.06.13-.12.18-.2.05-.08.07-.16.08-.25-.11.02-.19.02-.27,0s-.13-.04-.18-.08c-.05-.04-.08-.09-.1-.15-.02-.06-.03-.12-.03-.19Z"/>
    <path class="st0" d="M128.08,25.12l.51.23-1.87,4.24-.51-.24,1.87-4.23Z"/>
    <path class="st0" d="M137.52,25.12l.51.23-1.87,4.24-.51-.24,1.87-4.23Z"/>
    <path class="st0" d="M138.83,29.46h2.33v.56h-2.33v-.56Z"/>
    <path class="st0" d="M141.97,29.46h2.33v.56h-2.33v-.56Z"/>
    <path class="st0" d="M145.12,29.46h2.33v.56h-2.33v-.56Z"/>
    <path class="st0" d="M148.27,29.46h2.33v.56h-2.33v-.56Z"/>
    <path class="st0" d="M151.41,29.46h2.33v.56h-2.33v-.56Z"/>
    <path class="st0" d="M156.4,25.12l.51.23-1.87,4.24-.51-.24,1.87-4.23Z"/>
    <path class="st0" d="M160.08,29.35l-.52.24-1.9-4.24.54-.22,1.89,4.23Z"/>
    <path class="st0" d="M160.85,29.46h2.33v.56h-2.33v-.56Z"/>
    <path class="st0" d="M164,29.46h2.33v.56h-2.33v-.56Z"/>
    <path class="st0" d="M167.14,29.46h2.33v.56h-2.33v-.56Z"/>
    <path class="st0" d="M172.13,25.12l.51.23-1.87,4.24-.51-.24,1.87-4.23Z"/>
    <path class="st0" d="M173.43,29.46h2.33v.56h-2.33v-.56Z"/>
    <path class="st0" d="M178.42,25.12l.51.23-1.87,4.24-.51-.24,1.87-4.23Z"/>
    <path class="st0" d="M184.71,25.12l.51.23-1.87,4.24-.51-.24,1.87-4.23Z"/>
    <path class="st0" d="M186.02,29.46h2.33v.56h-2.33v-.56Z"/>
    <path class="st0" d="M191,25.12l.51.23-1.87,4.24-.51-.24,1.87-4.23Z"/>
    <path class="st0" d="M192.31,29.46h2.33v.56h-2.33v-.56Z"/>
    <path class="st0" d="M195.46,29.46h2.33v.56h-2.33v-.56Z"/>
    <path class="st0" d="M198.6,29.46h2.33v.56h-2.33v-.56Z"/>
    <path class="st0" d="M201.75,29.46h2.33v.56h-2.33v-.56Z"/>
    <path class="st0" d="M206.74,25.12l.51.23-1.87,4.24-.51-.24,1.87-4.23Z"/>
    <path class="st0" d="M208.04,29.46h2.33v.56h-2.33v-.56Z"/>
    <path class="st0" d="M213.03,25.12l.51.23-1.87,4.24-.51-.24,1.87-4.23Z"/>
    <path class="st0" d="M219.32,25.12l.51.23-1.87,4.24-.51-.24,1.87-4.23Z"/>
    <path class="st0" d="M220.62,29.46h2.33v.56h-2.33v-.56Z"/>
    <path class="st0" d="M225.61,25.12l.51.23-1.87,4.24-.51-.24,1.87-4.23Z"/>
    <path class="st0" d="M231.9,25.12l.51.23-1.87,4.24-.51-.24,1.87-4.23Z"/>
    <path class="st0" d="M233.21,29.46h2.33v.56h-2.33v-.56Z"/>
    <path class="st0" d="M238.2,25.12l.51.23-1.87,4.24-.51-.24,1.87-4.23Z"/>
    <path class="st0" d="M239.5,29.46h2.33v.56h-2.33v-.56Z"/>
    <path class="st0" d="M244.49,25.12l.51.23-1.87,4.24-.51-.24,1.87-4.23Z"/>
    <path class="st0" d="M248.17,29.35l-.52.24-1.9-4.24.54-.22,1.89,4.23Z"/>
    <path class="st0" d="M248.94,29.46h2.33v.56h-2.33v-.56Z"/>
    <path class="st0" d="M252.09,29.46h2.33v.56h-2.33v-.56Z"/>
    <path class="st0" d="M257.07,25.12l.51.23-1.87,4.24-.51-.24,1.87-4.23Z"/>
    <path class="st0" d="M258.38,29.46h2.33v.56h-2.33v-.56Z"/>
    <path class="st0" d="M263.36,25.12l.51.23-1.87,4.24-.51-.24,1.87-4.23Z"/>
    <path class="st0" d="M269.66,25.12l.51.23-1.87,4.24-.51-.24,1.87-4.23Z"/>
    <path class="st0" d="M270.96,29.46h2.33v.56h-2.33v-.56Z"/>
    <path class="st0" d="M275.95,25.12l.51.23-1.87,4.24-.51-.24,1.87-4.23Z"/>
    <path class="st0" d="M109.21,31.41l.51.23-1.87,4.24-.51-.24,1.87-4.23Z"/>
    <path class="st0" d="M110.51,35.76h2.33v.56h-2.33v-.56Z"/>
    <path class="st0" d="M113.66,35.76h2.33v.56h-2.33v-.56Z"/>
    <path class="st0" d="M116.81,35.76h2.33v.56h-2.33v-.56Z"/>
    <path class="st0" d="M119.95,35.76h2.33v.56h-2.33v-.56Z"/>
    <path class="st0" d="M124.94,31.41l.51.23-1.87,4.24-.51-.24,1.87-4.23Z"/>
  </g>
</svg>