<?xml version="1.0" encoding="UTF-8"?>
<svg id="Layer_1" xmlns="http://www.w3.org/2000/svg" version="1.1" viewBox="0 0 280 40">
  <!-- Generator: Adobe Illustrator 29.6.1, SVG Export Plug-In . SVG Version: 2.1.1 Build 9)  -->
  <defs>
    <style>
      .st0 {
        display: none;
        font-family: BadlitRoundedUno, 'Badlit Rounded Uno';
        font-size: 48px;
      }

      .st0, .st1 {
        fill: #231f20;
      }
    </style>
  </defs>
  <text class="st0" transform="translate(13.2 37.22)"><tspan x="0" y="0">tiika</tspan></text>
  <g>
    <path class="st1" d="M3.95,6.61c2.46-.17,4.49.31,6.09,1.43,1.71,1.13,2.78,2.77,3.23,4.92.31,1.4.36,3.01.15,4.81-.17,1.4-.41,2.89-.72,4.46-.07.27-.13.6-.18.97-.05.38-.09.63-.13.77-.31,2.15-.43,3.71-.36,4.66.03.89.24,1.57.61,2.05.51.44,1.16.67,1.95.67,1.23,0,2.65-.36,4.25-1.08.38-.17.94-.46,1.69-.87-1.33-2.66-2.25-5.29-2.77-7.89-.68-3.69-.53-6.85.46-9.48.72-1.74,1.77-3.12,3.15-4.15s3.01-1.55,4.89-1.59c2.87-.1,5.16.92,6.86,3.07,1.33,1.57,2.13,3.65,2.41,6.25.48,4.44-.38,8.81-2.56,13.11-.38.72-.82,1.4-1.33,2.05.65.65,1.31,1.2,2,1.64.96.61,1.54,1.48,1.77,2.59.22,1.11.03,2.14-.59,3.1-.65.96-1.53,1.55-2.64,1.79-1.11.24-2.14.03-3.1-.61-1.33-.89-2.58-1.93-3.74-3.12-1.02.61-2.07,1.16-3.12,1.64-2.66,1.2-5.22,1.79-7.68,1.79-3.21,0-5.86-1.11-7.94-3.33-1.67-1.81-2.61-4.15-2.82-7.02-.1-1.81.05-4.01.46-6.61.03-.17.08-.45.15-.85.07-.39.14-.73.21-1,.41-2.53.61-3.82.61-3.89.1-.92.1-1.6,0-2.05-.2-.07-.49-.07-.87,0-1.13.03-2.12-.33-2.97-1.1C.54,12.99.08,12.04,0,10.91c-.07-1.13.28-2.12,1.05-2.97.77-.85,1.73-1.3,2.89-1.33ZM14.61,2.62c0-1.13.68-1.9,2.05-2.33,1.37-.43,2.72-.38,4.07.15,1.35.53,2.01,1.37,1.97,2.54-.03.72-.33,1.33-.9,1.84-.56.51-1.24.82-2.02.92-.79.1-1.57.09-2.36-.03-.79-.12-1.45-.46-2-1.02-.55-.56-.82-1.25-.82-2.07ZM26.74,14.55h-.51l-.05.05-.05.05-.2.41c-.44,1.2-.46,2.82-.05,4.87.1.44.34,1.35.72,2.72.72-2.15.97-4.18.77-6.1-.1-.96-.29-1.6-.56-1.95l-.05-.05Z"/>
    <path class="st1" d="M47.44,26.02c0,.17-.03.33-.1.46,0,.07,0,.16-.03.28-.02.12-.03.2-.03.23-.14,1.16-.19,2.17-.15,3.02.03.75.15,1.32.36,1.69l.05.05s.07.02.1.05c.03,0,.08,0,.15.03.07.02.12.03.15.03h.56l.05-.05c.07,0,.1-.02.1-.05.24-.21.51-.73.82-1.59.1-.27.24-.7.41-1.28.14-.41.2-.65.2-.72l.26-.77c.17-.68.44-1.31.82-1.89.38-.58.82-1.06,1.33-1.43.82-.61,1.74-.89,2.77-.82.92.03,1.78.34,2.56.92.55.44.96.89,1.23,1.33.31.44.63,1.11.97,2,.03.1.11.33.23.69.12.36.25.75.38,1.18.14.43.22.67.26.74.17.51.36.96.56,1.33.07.1.15.21.26.31v.05s.08-.02.15-.05c.07-.03.14-.06.23-.08.08-.02.16-.04.23-.08.34-.1.63-.24.87-.41l.2-.2v-.1s.05-.07.05-.1c0-.34-.07-.87-.2-1.59,0-.27-.03-.41-.1-.41,0-.07,0-.16-.03-.28-.02-.12-.03-.2-.03-.23-.1-.41-.15-.79-.15-1.13-.07-.68-.03-1.28.1-1.79.21-.96.68-1.77,1.43-2.46,1.6-1.43,3.47-1.96,5.58-1.59.85.17,1.57.41,2.15.72.44.21.94.48,1.49.82.96.58,1.56,1.4,1.82,2.46.26,1.06.09,2.07-.49,3.02-.82,1.37-2.01,2.02-3.59,1.95,0,.48-.02.84-.05,1.08-.27,3.72-2.36,6.3-6.25,7.73-3.24,1.23-6.01.9-8.3-.97-.44-.31-1.01-.87-1.69-1.69-.34.44-.72.85-1.13,1.23-1.91,1.74-4.23,2.46-6.97,2.15-2.77-.31-4.85-1.54-6.25-3.69-1.02-1.5-1.59-3.36-1.69-5.58-.1-1.26-.03-2.8.21-4.61.07-.27.1-.49.1-.67.07-.14.1-.29.1-.46.14-1.09.66-1.96,1.56-2.61.9-.65,1.9-.89,3-.72,1.06.14,1.92.66,2.59,1.56s.91,1.9.74,3ZM46.93,7.58c.89.96,1.77,1.62,2.66,2,.55.27,1.14.41,1.79.41.61,0,1.33-.12,2.15-.36.72-.24,1.67-.61,2.87-1.13.58-.24.99-.41,1.23-.51.89-.38,1.91-.75,3.07-1.13,1.37-.34,2.61-.53,3.74-.56,3-.07,5.8.92,8.4,2.97.96.79,1.5,1.78,1.64,2.97.14,1.2-.17,2.27-.92,3.23-.75.96-1.73,1.51-2.95,1.66-1.21.15-2.3-.16-3.25-.95-.92-.72-1.79-1.08-2.61-1.08s-2.07.34-3.74,1.02c-.1.03-.27.1-.51.2-.24.1-.46.19-.67.26-1.57.72-2.8,1.2-3.69,1.43-1.74.55-3.33.82-4.76.82-3.89-.07-7.46-1.74-10.7-5.02-.85-.89-1.28-1.94-1.28-3.15s.43-2.25,1.28-3.1c.89-.85,1.94-1.28,3.15-1.28s2.25.43,3.1,1.28Z"/>
    <path class="st1" d="M86.11,29.51c1.54.96,3.16,1.47,4.87,1.54.31,0,.55-.02.72-.05-.03-1.5-.05-4.25-.05-8.25v-1.28c0-2.19-.02-3.74-.05-4.66h-.72c-3.31-.07-6.47-1.04-9.48-2.92-1.06-.65-1.72-1.57-1.97-2.77-.26-1.19-.06-2.31.59-3.33.68-1.02,1.61-1.66,2.79-1.92s2.28-.06,3.3.59c1.54.96,3.16,1.47,4.87,1.54,1.19,0,3-.31,5.43-.92.44-.07.8-.15,1.08-.26,2.66-.58,4.92-.85,6.76-.82,2.87.1,5.58.91,8.14,2.41,1.06.65,1.73,1.56,2.02,2.74.29,1.18.11,2.28-.54,3.3-.61,1.06-1.51,1.73-2.69,2.02-1.18.29-2.3.13-3.35-.49-1.13-.72-2.41-1.11-3.84-1.18-.92-.03-2.05.09-3.38.36,0,.58,0,1.55.03,2.92.02,1.37.03,2.48.03,3.33v7.84c1.47-.17,2.66-.24,3.59-.21,2.87.1,5.58.91,8.14,2.41,1.06.65,1.73,1.56,2.02,2.74.29,1.18.11,2.28-.54,3.3-.61,1.06-1.51,1.73-2.69,2.02-1.18.29-2.3.13-3.35-.49-1.13-.72-2.41-1.11-3.84-1.18-.99-.03-2.49.17-4.51.61-.2.03-.55.12-1.02.26-.96.24-2.12.49-3.48.77-1.67.24-3.04.36-4.1.36-3.31-.07-6.47-1.04-9.48-2.92-1.06-.65-1.72-1.57-1.97-2.77-.26-1.19-.06-2.31.59-3.33.68-1.02,1.61-1.66,2.79-1.92s2.28-.06,3.3.59Z"/>
  </g>
</svg>