<?xml version="1.0" encoding="UTF-8"?>
<svg id="Layer_1" xmlns="http://www.w3.org/2000/svg" version="1.1" viewBox="0 0 280 40">
  <!-- Generator: Adobe Illustrator 29.6.1, SVG Export Plug-In . SVG Version: 2.1.1 Build 9)  -->
  <defs>
    <style>
      .st0 {
        font-family: Montserrat-Regular, Montserrat;
        font-size: 20px;
      }

      .st0, .st1 {
        fill: #383838;
      }

      .st0, .st1, .st2 {
        isolation: isolate;
      }

      .st3 {
        fill: #fff;
      }

      .st1 {
        font-family: Montserrat-Bold, Montserrat;
        font-size: 48px;
        font-weight: 700;
      }

      .st2, .st4 {
        display: none;
      }
    </style>
  </defs>
  <g id="Layer_11" class="st4">
    <g class="st2">
      <g class="st2">
        <text class="st1" transform="translate(.95 34.81)"><tspan x="0" y="0">TIIKA</tspan></text>
      </g>
      <g class="st2">
        <text class="st0" transform="translate(141.35 34.81)"><tspan x="0" y="0" xml:space="preserve"> by Ben Smith</tspan></text>
      </g>
    </g>
  </g>
  <g id="Layer_2" class="st4">
    <g>
      <path class="st3" d="M10.98,9.98H1.14V1.2h31.01v8.78h-9.84v24.82h-11.33s0-24.82,0-24.82Z"/>
      <path class="st3" d="M35.08,1.2h11.33v33.6h-11.33V1.2Z"/>
      <path class="st3" d="M51.88,1.2h11.33v33.6h-11.33s0-33.6,0-33.6Z"/>
      <path class="st3" d="M82.36,23.67l-2.54,2.83v8.3h-11.14V1.2h11.14v12.19l11.03-12.19h12.34l-13.44,14.79,14.11,18.82h-13.1s-8.4-11.14-8.4-11.14Z"/>
      <path class="st3" d="M126.61,28.95h-12.77l-2.26,5.86h-11.52L114.76,1.2h11.14l14.69,33.6h-11.71l-2.26-5.86h0ZM123.49,20.8l-3.26-8.45-3.26,8.45h6.53,0Z"/>
      <path class="st3" d="M157.54,29.55c0,3.18-2.24,5.36-5.24,5.36-1.74,0-3.2-.76-4.06-2.18v2.08h-1.36v-14.84h1.42v6.32c.88-1.36,2.32-2.08,4-2.08,3,0,5.24,2.16,5.24,5.34ZM156.12,29.55c0-2.46-1.7-4.1-3.92-4.1s-3.92,1.64-3.92,4.1,1.68,4.1,3.92,4.1,3.92-1.64,3.92-4.1Z"/>
      <path class="st3" d="M168.99,24.28l-5.26,11.78c-.88,2.06-2,2.72-3.5,2.72-.98,0-1.92-.32-2.56-.96l.66-1.06c.52.52,1.16.8,1.92.8.94,0,1.58-.44,2.18-1.76l.46-1.02-4.7-10.5h1.48l3.96,8.94,3.96-8.94h1.4,0Z"/>
      <path class="st3" d="M188.23,31.07c0,2.38-1.76,3.74-5.26,3.74h-6.44v-14h6.04c3.12,0,4.92,1.32,4.92,3.6,0,1.6-.86,2.66-2.14,3.18,1.8.4,2.88,1.58,2.88,3.48ZM178.01,22.02v5.08h4.46c2.24,0,3.54-.86,3.54-2.54s-1.3-2.54-3.54-2.54h-4.46ZM186.75,30.94c0-1.82-1.34-2.62-3.8-2.62h-4.94v5.26h4.94c2.46,0,3.8-.8,3.8-2.64Z"/>
      <path class="st3" d="M200.47,29.99h-8.8c.16,2.2,1.84,3.66,4.14,3.66,1.28,0,2.42-.46,3.22-1.38l.8.92c-.94,1.12-2.4,1.72-4.06,1.72-3.28,0-5.52-2.24-5.52-5.36s2.18-5.34,5.14-5.34,5.1,2.18,5.1,5.34c0,.12-.02.28-.02.44ZM191.67,28.92h7.46c-.18-2.06-1.68-3.5-3.74-3.5s-3.54,1.44-3.72,3.5Z"/>
      <path class="st3" d="M213.07,28.7v6.1h-1.42v-5.96c0-2.22-1.16-3.36-3.16-3.36-2.26,0-3.68,1.4-3.68,3.8v5.52h-1.42v-10.52h1.36v1.94c.76-1.28,2.18-2.02,4-2.02,2.56,0,4.32,1.48,4.32,4.5h0Z"/>
      <path class="st3" d="M221.12,33.1l.58-1.14c1,.98,2.78,1.7,4.62,1.7,2.62,0,3.76-1.1,3.76-2.48,0-3.84-8.62-1.48-8.62-6.66,0-2.06,1.6-3.84,5.16-3.84,1.58,0,3.22.46,4.34,1.24l-.5,1.18c-1.2-.78-2.6-1.16-3.84-1.16-2.56,0-3.7,1.14-3.7,2.54,0,3.84,8.62,1.52,8.62,6.62,0,2.06-1.64,3.82-5.22,3.82-2.1,0-4.16-.74-5.2-1.82Z"/>
      <path class="st3" d="M251.83,28.7v6.1h-1.42v-5.96c0-2.22-1.12-3.36-3.02-3.36-2.16,0-3.52,1.4-3.52,3.8v5.52h-1.42v-5.96c0-2.22-1.12-3.36-3.04-3.36-2.14,0-3.52,1.4-3.52,3.8v5.52h-1.42v-10.52h1.36v1.92c.74-1.26,2.1-2,3.86-2s3.1.74,3.74,2.22c.76-1.36,2.26-2.22,4.16-2.22,2.56,0,4.24,1.48,4.24,4.5h0Z"/>
      <path class="st3" d="M255.37,20.97c0-.54.46-1,1.04-1s1.04.44,1.04.98c0,.58-.44,1.04-1.04,1.04s-1.04-.46-1.04-1.02h0ZM255.69,24.28h1.42v10.52h-1.42v-10.52h0Z"/>
      <path class="st3" d="M266.6,34.16c-.56.5-1.4.74-2.22.74-1.98,0-3.08-1.12-3.08-3.06v-6.36h-1.88v-1.2h1.88v-2.3h1.42v2.3h3.2v1.2h-3.2v6.28c0,1.24.64,1.92,1.82,1.92.58,0,1.16-.18,1.56-.54l.5,1.02h0Z"/>
      <path class="st3" d="M278.87,28.7v6.1h-1.42v-5.96c0-2.22-1.16-3.36-3.16-3.36-2.26,0-3.68,1.4-3.68,3.8v5.52h-1.42v-14.84h1.42v6.16c.78-1.22,2.16-1.92,3.94-1.92,2.56,0,4.32,1.48,4.32,4.5Z"/>
    </g>
  </g>
  <g>
    <path class="st3" d="M9.83,10H0V1.21h30.98v8.78h-9.83v24.82h-11.32V10Z"/>
    <path class="st3" d="M36.44,1.21h11.32v33.6h-11.32s0-33.6,0-33.6Z"/>
    <path class="st3" d="M53.23,1.21h11.32v33.6h-11.32V1.21Z"/>
    <path class="st3" d="M83.68,23.68l-2.54,2.83v8.3h-11.13V1.21h11.13v12.19l11.03-12.19h12.33l-13.43,14.79,14.1,18.82h-13.09l-8.39-11.14h0Z"/>
    <path class="st3" d="M127.9,28.96h-12.76l-2.26,5.86h-11.51L116.05,1.21h11.13l14.68,33.6h-11.7l-2.26-5.86h0ZM124.78,20.8l-3.26-8.45-3.26,8.45h6.52,0Z"/>
    <path class="st3" d="M158.8,29.56c0,3.18-2.24,5.36-5.23,5.36-1.74,0-3.2-.76-4.06-2.18v2.08h-1.36v-14.84h1.42v6.32c.88-1.36,2.32-2.08,4-2.08,3,0,5.23,2.16,5.23,5.34ZM157.38,29.56c0-2.46-1.7-4.1-3.92-4.1s-3.92,1.64-3.92,4.1,1.68,4.1,3.92,4.1,3.92-1.64,3.92-4.1Z"/>
    <path class="st3" d="M170.23,24.29l-5.25,11.78c-.88,2.06-2,2.72-3.5,2.72-.98,0-1.92-.32-2.56-.96l.66-1.06c.52.52,1.16.8,1.92.8.94,0,1.58-.44,2.18-1.76l.46-1.02-4.7-10.5h1.48l3.96,8.94,3.96-8.94h1.4,0Z"/>
    <path class="st3" d="M189.45,31.08c0,2.38-1.76,3.74-5.25,3.74h-6.43v-14h6.03c3.12,0,4.92,1.32,4.92,3.6,0,1.6-.86,2.66-2.14,3.18,1.8.4,2.88,1.58,2.88,3.48ZM179.24,22.03v5.08h4.46c2.24,0,3.54-.86,3.54-2.54s-1.3-2.54-3.54-2.54h-4.46ZM187.97,30.96c0-1.82-1.34-2.62-3.8-2.62h-4.94v5.26h4.94c2.46,0,3.8-.8,3.8-2.64Z"/>
    <path class="st3" d="M201.68,30h-8.79c.16,2.2,1.84,3.66,4.14,3.66,1.28,0,2.42-.46,3.22-1.38l.8.92c-.94,1.12-2.4,1.72-4.06,1.72-3.28,0-5.51-2.24-5.51-5.36s2.18-5.34,5.14-5.34,5.1,2.18,5.1,5.34c0,.12-.02.28-.02.44ZM192.88,28.93h7.45c-.18-2.06-1.68-3.5-3.74-3.5s-3.54,1.44-3.72,3.5Z"/>
    <path class="st3" d="M214.26,28.72v6.1h-1.42v-5.96c0-2.22-1.16-3.36-3.16-3.36-2.26,0-3.68,1.4-3.68,3.8v5.52h-1.42v-10.52h1.36v1.94c.76-1.28,2.18-2.02,4-2.02,2.56,0,4.32,1.48,4.32,4.5h0Z"/>
    <path class="st3" d="M222.32,33.12l.58-1.14c1,.98,2.78,1.7,4.62,1.7,2.62,0,3.76-1.1,3.76-2.48,0-3.84-8.61-1.48-8.61-6.66,0-2.06,1.6-3.84,5.16-3.84,1.58,0,3.22.46,4.34,1.24l-.5,1.18c-1.2-.78-2.6-1.16-3.84-1.16-2.56,0-3.7,1.14-3.7,2.54,0,3.84,8.61,1.52,8.61,6.62,0,2.06-1.64,3.82-5.21,3.82-2.1,0-4.16-.74-5.19-1.82Z"/>
    <path class="st3" d="M252.99,28.72v6.1h-1.42v-5.96c0-2.22-1.12-3.36-3.02-3.36-2.16,0-3.52,1.4-3.52,3.8v5.52h-1.42v-5.96c0-2.22-1.12-3.36-3.04-3.36-2.14,0-3.52,1.4-3.52,3.8v5.52h-1.42v-10.52h1.36v1.92c.74-1.26,2.1-2,3.86-2s3.1.74,3.74,2.22c.76-1.36,2.26-2.22,4.16-2.22,2.56,0,4.24,1.48,4.24,4.5h0Z"/>
    <path class="st3" d="M256.52,20.97c0-.54.46-1,1.04-1s1.04.44,1.04.98c0,.58-.44,1.04-1.04,1.04s-1.04-.46-1.04-1.02ZM256.84,24.29h1.42v10.52h-1.42s0-10.52,0-10.52Z"/>
    <path class="st3" d="M267.75,34.18c-.56.5-1.4.74-2.22.74-1.98,0-3.08-1.12-3.08-3.06v-6.36h-1.88v-1.2h1.88v-2.3h1.42v2.3h3.2v1.2h-3.2v6.28c0,1.24.64,1.92,1.82,1.92.58,0,1.16-.18,1.56-.54l.5,1.02h0Z"/>
    <path class="st3" d="M280,28.72v6.1h-1.42v-5.96c0-2.22-1.16-3.36-3.16-3.36-2.26,0-3.68,1.4-3.68,3.8v5.52h-1.42v-14.84h1.42v6.16c.78-1.22,2.16-1.92,3.94-1.92,2.56,0,4.32,1.48,4.32,4.5Z"/>
  </g>
</svg>