<?xml version="1.0" encoding="UTF-8"?>
<svg id="Layer_1" xmlns="http://www.w3.org/2000/svg" version="1.1" viewBox="0 0 500 500">
  <!-- Generator: Adobe Illustrator 29.6.0, SVG Export Plug-In . SVG Version: 2.1.1 Build 207)  -->
  <defs>
    <style>
      .st0 {
        stroke-width: 9.07px;
      }

      .st0, .st1 {
        fill: none;
        stroke: #fff;
        stroke-miterlimit: 10;
      }

      .st1 {
        stroke-width: 3.18px;
      }

      .st2 {
        fill: #fff;
      }
    </style>
  </defs>
  <rect class="st0" x="29.02" y="29.55" width="416.75" height="416.75"/>
  <g>
    <line class="st1" x1="29.02" y1="446.32" x2="445.77" y2="376.85"/>
    <line class="st1" x1="98.49" y1="446.32" x2="445.77" y2="307.4"/>
    <line class="st1" x1="167.94" y1="446.32" x2="445.77" y2="237.93"/>
    <line class="st1" x1="237.4" y1="446.32" x2="445.77" y2="168.47"/>
    <line class="st1" x1="306.86" y1="446.32" x2="445.77" y2="99.02"/>
    <line class="st1" x1="376.31" y1="446.32" x2="445.77" y2="29.55"/>
  </g>
  <path class="st2" d="M33.05,456.23v20.26h-3.76v-17.11h-4.28v-3.16h8.05Z"/>
  <path class="st2" d="M106.34,473.45v3.18h-14.93v-2.52l8.05-7.64c1.97-1.88,2.31-3.07,2.31-4.2,0-1.85-1.27-2.92-3.76-2.92-1.97,0-3.62.67-4.75,2.11l-2.64-2.03c1.56-2.11,4.36-3.36,7.7-3.36,4.4,0,7.23,2.23,7.23,5.81,0,1.97-.55,3.76-3.36,6.4l-5.42,5.14h9.56v.02Z"/>
  <path class="st2" d="M175.75,470.26c0,3.42-2.58,6.37-8.01,6.37-2.87,0-5.73-.86-7.6-2.34l1.61-2.92c1.45,1.21,3.65,2,5.93,2,2.69,0,4.28-1.19,4.28-3.07s-1.33-3.01-4.4-3.01h-1.85v-2.58l4.61-5.47h-9.2v-3.16h13.81v2.52l-4.92,5.84c3.83.49,5.76,2.78,5.76,5.81h-.03Z"/>
  <path class="st2" d="M246.58,471.89h-3.58v4.61h-3.65v-4.61h-11.11v-2.6l9.98-13.05h4.02l-9.41,12.47h6.62v-4.07h3.53v4.07h3.58v3.18h.02Z"/>
  <path class="st2" d="M314.67,470.13c0,3.57-2.58,6.51-8.01,6.51-2.87,0-5.76-.86-7.62-2.34l1.6-2.92c1.48,1.21,3.67,2,5.96,2,2.69,0,4.28-1.19,4.28-3.09s-1.24-3.16-5.44-3.16h-4.89l1.04-11.02h11.9v3.16h-8.71l-.44,4.69h1.94c5.99,0,8.39,2.6,8.39,6.2v-.02h0Z"/>
  <path class="st2" d="M384.41,470.21c0,4.02-3.27,6.58-7.41,6.58-5.52,0-8.77-3.57-8.77-10.08,0-6.95,4.05-10.76,9.93-10.76,2.02,0,3.97.44,5.32,1.31l-1.39,2.83c-1.11-.72-2.43-.99-3.85-.99-3.83,0-6.22,2.38-6.22,6.97v.03c1.22-1.42,3.16-2.11,5.42-2.11,3.99,0,6.97,2.43,6.97,6.22h0,0ZM380.77,470.39c0-2.11-1.6-3.45-4.05-3.45s-4.11,1.48-4.11,3.47,1.5,3.42,4.2,3.42c2.34,0,3.97-1.33,3.97-3.44h0Z"/>
  <path class="st2" d="M469.86,370.79v20.26h-3.76v-17.11h-4.28v-3.16h8.05Z"/>
  <path class="st2" d="M473.68,318.54v3.18h-14.93v-2.52l8.05-7.64c1.97-1.88,2.31-3.07,2.31-4.2,0-1.85-1.27-2.92-3.76-2.92-1.97,0-3.62.67-4.75,2.11l-2.64-2.03c1.56-2.11,4.36-3.36,7.7-3.36,4.4,0,7.23,2.23,7.23,5.81,0,1.97-.55,3.76-3.36,6.4l-5.42,5.14h9.56v.02Z"/>
  <path class="st2" d="M473.64,245.91c0,3.42-2.58,6.37-8.01,6.37-2.87,0-5.73-.86-7.6-2.34l1.61-2.92c1.45,1.21,3.65,2,5.93,2,2.69,0,4.28-1.19,4.28-3.07s-1.33-3.01-4.4-3.01h-1.85v-2.58l4.61-5.47h-9.2v-3.16h13.81v2.52l-4.92,5.84c3.83.49,5.76,2.78,5.76,5.81h-.03Z"/>
  <path class="st2" d="M475,178.07h-3.58v4.61h-3.65v-4.61h-11.11v-2.6l9.98-13.05h4.02l-9.41,12.47h6.62v-4.07h3.53v4.07h3.58v3.18h.02Z"/>
  <path class="st2" d="M473.64,106.84c0,3.57-2.58,6.51-8.01,6.51-2.87,0-5.76-.86-7.62-2.34l1.6-2.92c1.48,1.21,3.67,2,5.96,2,2.69,0,4.28-1.19,4.28-3.09s-1.24-3.16-5.44-3.16h-4.89l1.04-11.02h11.9v3.16h-8.71l-.44,4.69h1.94c5.99,0,8.39,2.6,8.39,6.2v-.02h0Z"/>
  <path class="st2" d="M473.92,37.47c0,4.02-3.27,6.58-7.41,6.58-5.52,0-8.77-3.57-8.77-10.08,0-6.95,4.05-10.76,9.93-10.76,2.02,0,3.97.44,5.32,1.31l-1.39,2.83c-1.11-.72-2.43-.99-3.85-.99-3.83,0-6.22,2.38-6.22,6.97v.03c1.22-1.42,3.16-2.11,5.42-2.11,3.99,0,6.97,2.43,6.97,6.22h0,0ZM470.27,37.65c0-2.11-1.6-3.45-4.05-3.45s-4.11,1.48-4.11,3.47,1.5,3.42,4.2,3.42c2.34,0,3.97-1.33,3.97-3.44,0,0,0,0,0,0Z"/>
  <path class="st2" d="M498,2v496H2V2h496M500,0H0v500h500V0h0Z"/>
</svg>